<mxfile host="app.diagrams.net" modified="2024-05-31T08:05:58.376Z" agent="Mozilla/5.0 (Windows NT 10.0; Win64; x64) AppleWebKit/537.36 (KHTML, like Gecko) Chrome/125.0.0.0 Safari/537.36 Edg/125.0.0.0" version="24.4.9" etag="NLW3X8fzfQp7eIYq2hBQ" type="github">
  <diagram name="Page-1" id="dHB2UDW-2kAoRvWUXNp-">
    <mxGraphModel>
      <root>
        <mxCell id="0" />
        <mxCell id="1" parent="0" />
      </root>
    </mxGraphModel>
  </diagram>
</mxfile>
